<?xml version="1.0" encoding="UTF-8" standalone="no"?>
<svg width="57px" height="65px" viewBox="0 0 57 65" version="1.1" xmlns="http://www.w3.org/2000/svg" xmlns:xlink="http://www.w3.org/1999/xlink">
    <!-- Generator: Sketch 41.2 (35397) - http://www.bohemiancoding.com/sketch -->
    <title>Fill 1</title>
    <desc>Created with Sketch.</desc>
    <defs></defs>
    <g id="Page-1" stroke="none" stroke-width="1" fill="none" fill-rule="evenodd">
        <g id="Home" transform="translate(-1252.000000, -3963.000000)" fill="#C59C5B">
            <path d="M1278.3936,3984.895 C1279.2206,3983.975 1280.2706,3983.13 1281.6836,3983.973 C1281.8266,3984.114 1281.9686,3984.254 1282.1126,3984.395 C1283.1646,3985.445 1283.1156,3986.536 1282.0156,3987.44 C1280.8106,3988.433 1279.6176,3987.767 1278.5976,3987.022 C1277.8496,3986.475 1277.8866,3985.458 1278.3936,3984.895 M1272.0586,3970.717 C1272.0296,3969.991 1272.5406,3969.275 1273.4046,3969.345 C1274.3146,3969.417 1275.0446,3969.88 1275.1396,3970.694 C1275.0236,3971.676 1274.9776,3972.514 1273.9826,3972.451 C1272.9496,3972.386 1272.1026,3971.812 1272.0586,3970.717 M1278.6446,3965.102 C1278.5576,3963.804 1278.8366,3963.037 1279.9726,3963.001 C1280.9786,3962.969 1281.3956,3963.668 1281.3596,3964.533 C1281.3146,3965.621 1280.7576,3966.745 1279.6936,3966.807 C1278.5766,3966.872 1278.8436,3965.559 1278.6446,3965.102 M1292.5646,3979.272 C1293.3936,3979.409 1294.0906,3979.733 1293.8656,3980.461 C1293.4396,3981.839 1292.6856,3983.052 1291.0216,3983.231 C1290.3086,3983.308 1289.9666,3982.928 1290.0696,3982.258 C1290.3056,3980.715 1291.4146,3979.916 1292.5646,3979.272 M1285.4686,3970.913 C1285.8716,3969.37 1287.0726,3968.564 1288.4826,3968.123 C1288.9976,3967.961 1289.6226,3968.27 1289.6506,3968.997 C1289.6786,3969.734 1287.1226,3971.827 1286.2716,3971.81 C1285.6386,3971.836 1285.3306,3971.439 1285.4686,3970.913 M1268.7366,3975.305 C1268.8106,3974.4 1269.2896,3974.035 1270.1956,3974.32 C1271.3196,3974.475 1272.5446,3974.598 1272.2926,3976.211 C1272.1706,3976.991 1271.8306,3977.91 1270.7736,3977.557 C1269.7466,3977.213 1268.6176,3976.76 1268.7366,3975.305 M1264.9296,3981.841 C1264.7146,3981.116 1265.3336,3980.217 1266.0556,3980.409 C1267.1346,3980.697 1268.7696,3980.178 1269.1306,3981.935 C1269.0706,3982.853 1268.6816,3983.626 1267.7596,3983.562 C1266.5896,3983.48 1265.3196,3983.15 1264.9296,3981.841 M1292.3226,3972.156 C1293.2186,3972.487 1293.3356,3973.232 1292.8316,3973.996 C1292.0626,3975.162 1290.8866,3975.887 1289.5766,3976.298 C1288.7766,3976.549 1288.3906,3976.157 1288.5556,3975.265 C1288.7416,3974.268 1291.2676,3972.063 1292.3226,3972.156 M1301.3816,4023.043 C1297.0586,4023.359 1292.7716,4022.649 1288.4586,4022.61 C1278.5296,4022.52 1268.6056,4021.94 1258.6696,4022.396 C1255.9746,4022.521 1255.9196,4022.312 1257.1936,4019.834 C1257.4846,4019.27 1257.8196,4018.725 1258.0626,4018.141 C1258.2596,4017.669 1258.6196,4017.625 1259.0176,4017.644 C1259.4686,4017.664 1259.3856,4018.056 1259.4666,4018.344 C1260.3096,4021.321 1260.3126,4021.32 1262.8286,4019.599 C1262.6176,4017.494 1263.6426,4016.73 1265.6616,4016.813 C1267.5686,4016.893 1269.4846,4016.801 1271.3966,4016.785 C1272.5056,4016.785 1273.6246,4016.883 1274.7226,4016.768 C1276.5916,4016.57 1277.8436,4016.868 1277.4996,4019.204 C1277.4176,4019.762 1277.4766,4020.602 1278.2776,4020.762 C1279.5406,4021.016 1280.0136,4019.889 1280.7146,4019.186 C1280.5316,4017.523 1281.0726,4016.605 1282.9476,4016.764 C1284.3746,4016.883 1285.8186,4016.805 1287.2546,4016.815 C1289.7996,4016.793 1292.3476,4016.822 1294.8906,4016.728 C1296.1876,4016.68 1296.5786,4017.231 1296.5396,4018.427 C1296.5136,4019.219 1296.6736,4020.016 1296.7286,4020.812 C1296.7876,4021.664 1296.9466,4022.485 1298.0056,4022.488 C1298.9596,4022.492 1299.7046,4022.023 1299.9416,4021.032 C1300.1546,4020.15 1300.0166,4018.732 1301.4096,4019.174 C1302.6506,4019.568 1303.1996,4021.064 1303.3316,4022.234 C1303.4236,4023.037 1302.1656,4022.985 1301.3816,4023.043 M1264.1976,4008.444 C1264.7326,4008.344 1265.0216,4007.886 1264.9056,4007.371 C1264.5506,4005.811 1265.8026,4006.601 1266.3226,4006.413 C1267.1536,4006.111 1267.4476,4006.592 1267.4766,4007.392 C1267.5136,4008.43 1267.6606,4009.464 1267.6896,4010.502 C1267.7156,4011.425 1267.7366,4012.396 1268.8866,4012.512 C1270.0076,4012.624 1270.3166,4011.712 1270.4996,4010.807 C1270.5626,4010.494 1270.6026,4010.176 1270.6526,4009.86 C1270.4556,4006.569 1270.4626,4006.7 1273.6416,4006.516 C1276.0856,4006.375 1278.5086,4005.942 1280.9396,4006.571 C1282.6016,4006.707 1284.2516,4006.443 1285.9356,4006.557 C1287.6896,4006.675 1288.0446,4007.464 1288.0376,4008.88 C1288.0356,4009.039 1288.0406,4009.204 1288.0816,4009.355 C1288.3966,4010.485 1287.7206,4012.475 1289.4516,4012.444 C1291.2896,4012.412 1291.1366,4010.499 1291.1406,4009.063 C1290.7596,4006.51 1292.2886,4006.524 1294.0726,4006.883 C1295.2906,4006.321 1296.1156,4006.478 1296.5556,4007.943 C1297.0096,4009.455 1297.6676,4010.905 1298.3546,4012.687 C1285.7156,4013.256 1273.3066,4012.421 1260.4376,4013.574 C1261.6736,4011.535 1261.3636,4008.976 1264.1976,4008.444 M1269.5646,3995.955 C1269.6266,3994.95 1270.3846,3995.16 1270.9726,3995.203 C1272.6976,3995.332 1274.4176,3995.513 1276.1406,3995.674 C1277.2056,3995.481 1277.8096,3995.801 1277.8366,3997.003 C1277.8726,3998.513 1277.9746,4000.023 1278.1096,4001.528 C1278.2246,4002.832 1277.2346,4002.43 1276.6626,4002.437 C1273.2516,4002.484 1269.8396,4002.461 1266.1876,4002.461 C1267.0956,3999.963 1268.2186,3997.903 1269.5646,3995.955 M1273.2206,3989.197 C1273.6156,3988.932 1273.9606,3989.33 1274.2176,3989.611 C1275.1966,3990.684 1276.5746,3991.152 1277.9266,3992.037 C1276.1436,3992.457 1274.6316,3991.929 1273.1056,3991.687 C1272.6606,3991.616 1272.3996,3991.326 1272.4456,3990.861 C1272.5076,3990.22 1272.6716,3989.568 1273.2206,3989.197 M1280.0446,3983.062 C1280.7256,3983.079 1281.5056,3982.857 1282.0376,3983.549 C1282.2056,3983.705 1282.3736,3983.861 1282.5416,3984.016 C1283.4706,3985.138 1285.8106,3985.241 1285.2266,3987.415 C1284.9186,3988.559 1281.1146,3989.484 1279.2476,3989.055 C1279.0936,3989.02 1278.9336,3988.973 1278.7976,3988.893 C1277.5466,3988.163 1275.6466,3988.075 1275.4666,3986.221 C1275.3396,3984.896 1278.2136,3983.019 1280.0446,3983.062 M1280.9456,3975.306 C1281.3926,3977.211 1283.7086,3978.052 1282.2876,3979.861 C1281.6486,3980.673 1279.7836,3980.355 1279.4906,3979.846 C1278.6366,3978.365 1279.9206,3977.12 1280.9456,3975.306 M1287.6246,3990.041 C1288.6076,3989.826 1288.8786,3991.02 1288.8996,3991.7 C1288.9556,3993.525 1287.6946,3992.062 1287.2226,3992.279 C1286.4476,3992.447 1285.5116,3993.039 1285.4756,3991.827 C1285.4376,3990.56 1286.7566,3990.231 1287.6246,3990.041 M1291.1246,3996.214 C1291.4896,3996.074 1291.6136,3996.708 1291.6196,3997.109 C1291.7326,3997.221 1291.8806,3997.313 1291.9516,3997.447 C1294.6226,4002.594 1294.5766,4002.696 1289.0236,4002.769 C1286.2066,4002.805 1283.3906,4002.775 1279.9946,4002.775 C1281.7416,4001.271 1281.5376,3999.729 1281.5586,3998.181 C1281.5686,3997.484 1280.7446,3996.082 1282.5546,3996.176 C1285.4066,3995.615 1288.2466,3997.312 1291.1246,3996.214 M1307.9906,4023.148 C1306.2276,4019.507 1304.2586,4015.959 1302.5626,4012.301 C1296.4296,3999.075 1290.5336,3985.74 1283.7166,3972.844 C1282.9906,3971.468 1282.8236,3969.534 1280.5036,3969.512 C1278.1916,3969.49 1278.7656,3971.568 1278.2466,3972.618 C1274.2176,3980.757 1269.4356,3988.48 1265.2546,3996.528 C1260.9626,4004.79 1256.8396,4013.14 1252.6306,4021.445 C1251.1406,4024.387 1252.3456,4026.321 1255.6616,4026.187 C1264.2716,4025.84 1272.8786,4025.763 1281.4906,4026.203 C1287.8616,4026.527 1294.2406,4026.71 1300.7276,4026.961 C1302.7636,4027.545 1304.5936,4026.257 1306.5996,4025.953 C1308.3726,4025.684 1308.8436,4024.911 1307.9906,4023.148" id="Fill-1"></path>
        </g>
    </g>
</svg>