<?xml version="1.0" encoding="UTF-8" standalone="no"?>
<svg width="50px" height="68px" viewBox="0 0 50 68" version="1.1" xmlns="http://www.w3.org/2000/svg" xmlns:xlink="http://www.w3.org/1999/xlink">
    <!-- Generator: Sketch 41.2 (35397) - http://www.bohemiancoding.com/sketch -->
    <title>Page 1</title>
    <desc>Created with Sketch.</desc>
    <defs>
        <polygon id="path-1" points="0.00025140756 0.923 0.00025140756 67.999291 49.8646738 67.999291 49.8646738 0.923"></polygon>
        <path d="M43.8818,62.998 C35.9478,63.297 28.0288,64.055 20.0958,64.205 C15.4288,64.293 10.7988,64.834 6.1338,64.894 C4.0078,64.922 3.3798,64.367 4.1038,62.379 C4.2108,62.086 4.2008,61.75 4.2438,61.435 C3.9898,60.293 4.8138,60.064 5.6098,59.926 C8.4158,59.439 11.2288,59.07 14.0638,59.764 C14.5178,59.875 15.0398,60.006 15.4658,59.889 C23.0198,57.819 30.7548,59.367 38.3848,58.761 C40.2538,58.612 42.2118,58.738 44.0638,58.454 C46.1568,58.133 46.1238,59.057 45.7778,60.504 C46.1278,62.082 45.9548,62.92 43.8818,62.998 M11.1348,20.467 C11.7458,19.237 11.8338,17.399 13.6868,16.997 C8.7558,27.309 7.8088,38.289 8.4648,49.477 C8.6048,51.848 9.0548,54.207 8.8878,56.604 C9.7288,56.549 10.5698,56.494 11.4098,56.438 C10.1558,49.402 10.5118,42.332 10.9858,35.261 C11.1188,33.273 11.5078,31.34 11.9678,29.391 C13.1958,24.188 15.6078,19.398 17.0108,14.267 C17.4228,13.856 17.6118,13.066 18.4548,13.392 C18.3798,12.981 18.7028,12.847 18.9868,12.685 C18.8198,12.926 18.6538,13.167 18.4868,13.408 C16.2218,21.215 16.3228,29.374 14.9628,37.32 C14.3608,40.846 14.4338,44.442 15.5668,47.924 C16.3688,47.951 17.1708,47.978 17.9748,48.007 C17.9898,45.776 17.3548,43.596 17.5478,41.344 C18.2828,32.792 19.2588,24.269 20.4128,15.765 C20.6588,13.953 22.0558,12.465 21.8618,10.535 C23.2058,9.4 24.5498,8.266 25.8938,7.131 C25.6908,8.039 25.4218,8.937 25.3108,9.855 C25.2168,10.618 25.5818,11.333 26.3748,11.451 C27.1658,11.568 27.4028,10.834 27.4808,10.207 C27.5898,9.322 27.7878,8.514 28.5458,7.95 C29.4048,8.59 30.5278,8.915 31.0128,10.004 C31.3728,10.209 31.7348,10.415 32.0948,10.62 C33.8398,10.889 35.0198,12.187 36.4568,13.016 C37.2058,13.589 37.9538,14.164 38.7018,14.738 C42.5598,19.169 44.5388,24.452 45.6888,30.115 C45.8558,30.939 45.6248,31.258 44.7538,31.294 C43.5728,31.344 42.3998,31.538 41.2228,31.671 C40.5158,31.629 39.8088,31.588 39.1008,31.546 C37.0918,32.55 36.7208,34.438 36.6438,36.381 C36.5958,37.598 36.3538,38.414 34.9588,38.39 C34.4268,38.427 33.8958,38.464 33.3638,38.502 C31.6888,38.831 30.0198,39.218 28.2938,38.914 C27.7118,39.055 27.1298,39.195 26.5468,39.335 C25.8948,39.771 25.3368,40.144 25.3798,41.16 C25.4388,42.574 25.0948,44.001 25.0898,45.422 C25.0818,47.6 24.1228,48.612 21.9278,48.375 L20.0268,48.252 C19.3418,48.17 18.6578,48.088 17.9738,48.007 C17.1708,47.978 16.3688,47.951 15.5668,47.924 C13.6758,47.782 13.0348,48.681 13.1278,50.523 C13.2068,52.102 13.2648,53.689 13.0508,55.29 C12.8918,56.485 12.2158,56.432 11.4098,56.438 C10.5698,56.494 9.7288,56.549 8.8888,56.604 C8.0688,56.858 7.6858,56.461 7.6018,55.699 C6.2828,43.702 5.5378,31.744 11.1348,20.467 M27.9928,7.39 C27.5448,6.883 27.0918,6.392 26.3648,6.782 C27.0918,6.391 27.5448,6.883 27.9928,7.39 M42.2108,34.758 C43.2868,35.352 45.2068,34.01 45.5098,36.154 C45.6088,36.852 45.5018,37.631 44.6698,37.057 C43.3428,36.572 41.5448,38.627 41.0998,35.995 C40.9578,35.159 41.4208,34.322 42.2108,34.758 M44.6298,45.727 C39.8068,46.099 34.9868,46.543 30.1598,46.863 C28.3088,46.984 29.1908,45.492 29.0498,44.625 C27.8928,42.688 28.7138,41.963 30.6958,41.754 C34.3368,41.372 37.9918,41.039 41.5948,40.418 C45.7868,39.695 46.1468,39.912 45.7378,44.172 C46.0608,45.184 45.6768,45.646 44.6298,45.727 M44.2928,55.261 C39.1408,56.058 33.9608,55.489 28.7998,55.732 C25.7068,55.878 22.5978,55.543 19.5138,56.109 C17.6378,56.455 16.5868,55.863 17.2168,53.725 C16.4488,51.875 16.6358,50.793 19.0628,51.164 C23.1098,51.782 26.9688,50.545 30.8628,49.785 C35.2028,48.939 39.6118,49.206 43.9768,48.807 C45.6168,48.656 46.1078,49.266 45.8638,50.8 C45.7388,51.584 45.7648,52.393 45.7218,53.19 C46.0208,54.416 45.7338,55.038 44.2928,55.261 M49.7418,51.709 C49.3478,47.262 49.6538,42.751 49.6538,39.4 C49.7848,35.09 50.1218,31.878 49.5088,28.748 C48.3848,23.022 46.5668,17.489 42.3568,13.243 C40.0168,10.881 37.0278,9.227 34.1048,7.585 C32.0128,6.41 30.0998,5.153 29.3018,2.6 C28.6418,0.489 26.3278,0.355 25.0728,2.286 C24.1948,3.639 23.3058,4.959 22.0218,5.933 C19.1628,8.102 16.2518,10.202 13.3808,12.355 C11.7948,13.545 10.2108,14.719 9.1768,16.509 C3.7498,25.905 2.6058,36.15 3.1798,46.721 C3.3398,49.66 3.7688,52.584 4.0738,55.516 C4.2128,56.838 3.9948,57.734 2.3278,57.922 C1.0698,58.064 -0.1712,58.986 0.0198,60.372 C0.2248,61.863 0.3318,63.318 0.2888,64.816 C0.1918,68.189 0.2248,68.189 3.5258,67.863 C3.7618,67.84 4.0078,67.905 4.2428,67.877 C8.8818,67.332 13.5328,67.905 18.1938,67.733 C27.8388,67.378 37.4698,66.762 47.1128,66.394 C48.4358,66.344 49.8288,66.266 49.4808,64.344 C48.7118,60.118 50.1188,55.965 49.7418,51.709" id="path-3"></path>
    </defs>
    <g id="Page-1" stroke="none" stroke-width="1" fill="none" fill-rule="evenodd">
        <g id="Home-Copy" transform="translate(-152.000000, -3759.000000)">
            <g id="Page-1" transform="translate(152.000000, 3758.000000)">
                <g id="Group-3" transform="translate(0.000000, 0.077100)">
                    <mask id="mask-2" fill="white">
                        <use xlink:href="#path-1"></use>
                    </mask>
                    <g id="Clip-2"></g>
                    <mask id="mask-4" fill="white">
                        <use xlink:href="#path-3"></use>
                    </mask>
                    <use id="Fill-1" fill="#C59C5B" xlink:href="#path-3"></use>
                </g>
                <path d="M18.4873,13.4848 C18.4883,13.4828 18.4883,13.4808 18.4893,13.4788 C18.4763,13.4728 18.4673,13.4738 18.4553,13.4688 C18.4593,13.4908 18.4513,13.5048 18.4583,13.5278 C18.4673,13.5138 18.4773,13.4988 18.4873,13.4848" id="Fill-4" fill="#C59C5B"></path>
                <path d="M29.4434,21.4331 C29.5694,20.4521 29.5094,19.6341 28.3384,19.4671 C27.0604,19.2861 26.7284,20.1151 26.5814,21.1821 C25.8384,26.5471 25.9914,31.9661 25.5884,37.3501 C25.5224,38.2271 25.8834,38.8861 26.5474,39.4121 C27.1304,39.2721 27.7124,39.1321 28.2934,38.9911 C28.1264,33.1021 28.6924,27.2611 29.4434,21.4331" id="Fill-6" fill="#C59C5B"></path>
                <path d="M29.9404,12.1269 C29.4154,12.8659 29.6904,13.3149 30.3234,13.6739 C31.2484,14.1979 31.6784,13.5769 31.8674,12.8279 C32.0394,12.1419 32.0264,11.4099 32.0944,10.6969 C31.7344,10.4919 31.3734,10.2869 31.0124,10.0819 C30.6614,10.7679 30.3824,11.5049 29.9404,12.1269" id="Fill-8" fill="#C59C5B"></path>
                <path d="M28.3311,18.2006 C28.9941,18.3266 29.6051,18.2626 29.8031,17.4046 C29.7441,16.7566 29.5401,16.1606 28.7551,16.0966 C28.1071,16.0436 27.4281,16.1326 27.2691,16.9276 C27.1111,17.7236 27.6531,18.0716 28.3311,18.2006" id="Fill-10" fill="#C59C5B"></path>
            </g>
        </g>
    </g>
</svg>