<?xml version="1.0" encoding="UTF-8" standalone="no"?>
<svg width="32px" height="62px" viewBox="0 0 32 62" version="1.1" xmlns="http://www.w3.org/2000/svg" xmlns:xlink="http://www.w3.org/1999/xlink">
    <!-- Generator: Sketch 41.2 (35397) - http://www.bohemiancoding.com/sketch -->
    <title>Page 1</title>
    <desc>Created with Sketch.</desc>
    <defs></defs>
    <g id="Page-1" stroke="none" stroke-width="1" fill="none" fill-rule="evenodd">
        <g id="Home-Copy" transform="translate(-790.000000, -3967.000000)" fill="#C59C5B">
            <g id="Page-1" transform="translate(790.000000, 3967.000000)">
                <path d="M4.168128,53.0847614 C3.637568,53.0328458 3.255488,53.2677321 3.267648,53.8242419 C3.277248,54.3376997 3.692608,54.5675211 4.116288,54.7245341 C4.562368,54.5871477 5.075648,54.5257354 5.051328,53.9217419 C5.030208,53.3911899 4.664768,53.1335114 4.168128,53.0847614" id="Fill-1"></path>
                <path d="M11.9056,55.5751899 C12.2224,55.4586964 12.71072,55.3308068 12.57056,54.8996542 C12.35296,54.2285503 11.72256,54.1101575 11.07744,54.1171218 C10.80288,54.1519432 10.5296,54.1867646 10.25568,54.221586 C10.34336,54.4032906 10.43104,54.5856282 10.51808,54.7673328 C10.79584,55.3498003 11.12992,55.8600925 11.9056,55.5751899" id="Fill-3"></path>
                <path d="M14.991232,54.7664464 C15.418752,54.6980698 15.964032,54.5670146 15.945472,53.9832808 C15.924352,53.2545633 15.171072,53.3375016 14.776192,53.0367711 C14.240512,53.188086 13.905152,53.550862 13.999232,54.0212679 C14.085632,54.4530536 14.467072,54.850651 14.991232,54.7664464" id="Fill-5"></path>
                <g id="Group-9" transform="translate(8.320000, 55.635146)">
                    <path d="M7.76,0.372209416 C7.30816,0.325991883 6.9344,0.533654221 6.80832,0.965439935 C6.6816,1.39659253 6.53056,1.886625 6.62144,2.30131656 C6.84032,3.30987175 6.15232,3.66315097 5.47648,3.95375162 C4.93312,4.18737175 4.30272,4.22345942 3.71072,4.34628409 C3.32032,4.43175487 2.93376,4.54444968 2.53952,4.59636526 C1.8752,4.68310227 1.4816,4.51785877 1.61664,3.70556981 C1.74848,2.91290747 1.53472,2.13860552 1.22304,1.39975812 C0.6368,0.74511526 0.09024,0.776137987 0.03648,1.68845942 C-0.03392,2.88694968 0.03264,4.12279383 0.59008,5.23454708 C1.01248,6.07785877 1.67424,6.50901136 2.70848,6.26209578 C4.28032,5.88539123 5.85472,5.67013149 7.19616,4.5640763 C8.29504,3.65808604 8.95104,2.34816721 8.49152,1.05217695 C8.36288,0.691933442 8.15232,0.412095779 7.76,0.372209416" id="Fill-7"></path>
                </g>
                <path d="M18.299392,53.3289545 C17.772672,53.315026 17.383552,53.5613084 17.407872,54.1064221 C17.433472,54.6686299 17.791872,55.0307727 18.397312,55.0143117 C18.886912,55.0010162 19.269632,54.7996851 19.362432,54.1659351 C19.137792,53.7841656 18.897792,53.3447825 18.299392,53.3289545" id="Fill-10"></path>
                <path d="M9.163776,53.8322192 C8.689536,53.5555471 8.218496,53.2218945 7.651456,53.6283555 C7.421056,53.7929659 7.357696,54.0297516 7.443456,54.2931282 C7.583616,54.7173166 7.858176,54.9648653 8.341376,54.9376412 C9.081216,54.8964886 9.275776,54.4754659 9.163776,53.8322192" id="Fill-12"></path>
                <g id="Group-16" transform="translate(0.000000, 0.553977)">
                    <path d="M6.545024,7.42430844 C6.345344,7.02481169 6.395264,6.64810714 6.691584,6.32268506 C6.975104,6.00865909 7.165824,5.44328571 7.714944,5.63638636 C8.215424,5.81175974 7.883904,6.32901623 7.971584,6.68356169 C8.205824,7.63133766 7.572224,8.4841461 7.689984,9.41546104 C7.764864,10.6702987 7.840384,11.9257695 7.916544,13.1806071 C8.162304,15.3490325 7.818624,17.5453149 8.237824,19.7048766 C8.323584,20.1537565 7.975424,20.1499578 7.688704,20.2044058 C6.941184,20.5083019 6.817664,20.0594221 6.769664,19.4788539 C6.441344,15.5301039 6.382464,11.571224 6.331264,7.61234416 C6.330624,7.5502987 6.470784,7.48698701 6.545024,7.42430844 M10.233344,17.4167922 C10.360064,15.3129448 10.518144,13.2128961 10.463104,11.088789 C10.398464,8.58987662 10.712064,6.0802013 10.882304,3.57685714 C10.916864,3.07416234 11.215744,2.67086688 11.620864,2.16880519 C13.543424,5.09697078 13.030144,8.25305844 13.220864,11.2698604 C13.376384,13.7314188 13.208704,16.2119708 13.343104,18.6754286 C13.389824,19.5446981 13.156224,19.6301688 12.465664,19.4927825 C12.265984,19.452263 12.063744,19.4098442 11.861504,19.4028799 C10.027264,19.3383019 10.116864,19.3458994 10.233344,17.4167922 M17.051264,32.0272305 C17.411584,31.4327338 18.059904,31.1383344 18.457344,30.5824578 C18.945024,32.0582532 17.794304,31.8315974 17.051264,32.0272305 M15.908224,30.1152175 C14.504064,31.7746169 12.523904,31.9860779 10.394624,32.2215974 C8.724864,32.0208994 6.911104,31.8683182 5.272704,30.908513 C4.504704,30.459 4.159744,30.0101201 4.886784,29.3098929 C5.453824,28.7654123 5.835264,27.5238701 6.981504,28.6413214 C9.441664,31.0376688 12.621824,31.1237727 15.057024,29.1091948 C15.482624,28.7571818 15.769984,28.8901364 16.108544,29.1661753 C16.656384,29.6118896 16.145024,29.836013 15.908224,30.1152175 M9.462144,28.1335617 C9.861504,28.2070032 10.245504,28.3576851 10.644864,28.4273279 C10.934144,28.4773442 11.260544,28.3285617 11.535744,28.6216948 C11.332864,28.9946006 11.067264,29.023724 10.820224,29.0154935 C10.022144,28.9889026 8.964224,29.3371169 8.548224,28.5678799 C8.233984,27.9885779 9.036544,28.0556883 9.462144,28.1335617 M0.015744,31.206711 C0.142464,34.8604286 0.926464,38.4229773 1.249024,42.0482045 C1.521024,45.1029935 3.281664,47.3594221 6.344064,48.2172955 C7.462784,48.5306883 7.737984,48.9194221 7.819904,49.9855909 C7.885824,50.8396656 7.593984,52.2166948 9.250304,52.1698442 C10.326784,51.091013 9.428224,49.8570682 9.439104,48.7199903 C9.451904,47.489211 8.724864,46.7775877 7.233664,46.5477662 C4.992384,46.2027175 3.491584,43.8070032 3.288064,40.8883344 C3.134464,38.6755909 2.779904,36.5248929 2.269824,34.3457045 C1.776384,32.2348929 1.983744,29.9240162 2.233344,27.7087403 C2.377984,26.4197143 2.617344,25.1408182 2.813824,23.8574903 C2.689664,23.5339675 2.603264,23.2104448 2.816384,22.8875552 C2.837504,19.078724 2.585344,15.265461 3.048704,11.4648604 C3.135104,10.7519708 3.258624,10.0815 4.307584,9.41672727 L4.307584,17.1515162 C4.642304,18.7938214 5.252224,20.4519545 4.047744,22.0106883 C3.826304,22.2981234 3.579904,22.5602338 3.848704,22.9445357 C4.182784,23.4231721 4.662784,23.3851851 5.075584,23.1730909 C6.171264,22.6096169 7.362304,22.3658669 8.522624,22.0011916 C10.736384,21.3060292 12.911104,21.3231234 15.121664,21.92775 C15.803904,22.1138864 16.616064,22.3804286 16.973824,21.4940649 C17.309184,20.6608831 16.600704,20.3417922 15.969664,20.0936104 C15.122304,19.7593247 15.507584,19.0515 15.433344,18.4816948 C15.419904,14.8533019 15.395584,11.2249091 15.407744,7.59651623 C15.409024,7.05963312 15.004544,6.15680844 15.865984,6.10679221 C16.489984,6.07007143 16.907264,6.8038539 16.832384,7.55852922 C17.416704,10.1910292 17.496064,12.8361916 17.353344,15.5332695 C17.243264,17.6143247 17.128704,19.7833831 17.935104,21.7871981 C18.735744,23.78025 18.184704,25.8302825 18.397824,27.8423279 C18.418304,28.0366948 18.361984,28.2525877 18.108544,28.3013377 C17.825664,28.3564188 17.629184,28.2139675 17.454464,28.0082045 C16.896384,27.3522955 16.340224,26.6925877 15.451904,26.2873929 C15.665024,25.8011591 16.695424,25.6618734 16.152704,24.9211266 C15.930624,24.6178636 15.590784,24.2639513 15.125504,24.4026039 C14.209024,24.6780097 14.959104,25.4301526 14.708224,26.0221169 C11.078144,24.4494545 7.529984,23.9321981 4.340224,26.9407695 C4.168064,27.1807208 4.022144,27.4453636 3.820544,27.658724 C1.846144,29.7518084 1.957504,30.9401688 4.301184,32.663513 C7.826304,34.759763 11.523584,34.5001851 15.467264,33.3764026 C13.998464,35.491013 13.160704,37.7328799 12.297984,39.9589188 C11.990784,40.7534805 11.513344,40.404 11.073664,40.25775 C10.112384,39.9386591 9.196544,39.4524253 8.121344,39.6702175 C7.641984,39.7677175 6.929024,39.5948766 6.808704,40.1621494 C6.682624,40.7623442 7.304704,41.2758019 7.807744,41.3391136 C9.852544,41.5993247 11.581824,42.6946169 13.495424,43.2853149 C14.372224,40.3508182 15.393024,37.4840649 17.426304,35.0927825 C19.021184,33.9936916 20.314624,32.5577825 21.704704,31.2396331 C22.931584,30.0753312 24.268544,29.2681071 25.961344,29.1142597 C26.772224,29.0401851 27.603584,29.0591786 28.274304,29.6213864 C28.621824,29.9126201 29.071104,30.2874253 28.987904,30.7268084 C28.888064,31.2516623 28.272384,31.1927825 27.834624,31.2244383 C24.553344,31.4618571 22.884224,33.3890649 22.074624,36.379276 C21.468544,38.6160779 20.809984,40.8440162 19.698304,42.9187403 C18.633344,44.9048279 17.331584,46.530039 14.905984,46.8636916 C14.173824,46.9643571 14.009984,47.5493571 14.032384,48.0976364 C14.070144,49.0010942 14.275584,49.8963214 14.363904,50.7997792 C14.429824,51.4778474 14.852224,51.8659481 15.442304,51.8184643 C16.075904,51.7678149 16.226304,51.1214026 16.077824,50.6345357 C15.528064,48.8333182 16.502784,48.171711 18.019584,47.6316623 C18.793984,47.3549903 19.558784,46.7294708 20.050304,46.0615325 C21.490304,44.1064675 22.701184,42.0089513 23.309184,39.624 C23.682944,38.1583344 24.008064,36.6844383 24.656384,35.2909481 C25.349504,33.7986916 26.404864,33.0180584 28.098944,33.0066623 C28.738944,33.0028636 29.490304,32.8825714 29.990784,32.5343571 C30.806784,31.9670844 31.964544,31.4264026 31.530624,30.0879935 C31.002624,28.4570844 29.137664,27.209211 27.394304,27.1984481 C25.471744,27.1876851 23.649664,27.4383994 22.051584,28.6679123 C21.505664,29.0876688 20.683264,29.6973604 20.807424,28.059487 C20.932224,26.4146494 20.928384,24.6780097 20.523904,23.0952175 C19.816064,20.3240649 19.518464,17.551013 19.657984,14.7228799 C19.783424,12.1916786 19.679104,9.6915 19.149824,7.20271753 C18.743424,5.28817208 17.671424,4.02067208 15.739904,3.59078571 C15.103744,3.45023377 14.888704,3.21661364 14.637184,2.60818831 C13.344384,-0.51750974 11.247104,-0.559928571 9.396864,1.4641461 C8.225024,2.74684091 7.053824,3.68891883 5.734784,4.73102922 C4.113024,6.01245779 2.533504,7.78201948 1.343744,9.66870779 C1.071104,10.1017597 1.038464,10.6139513 0.942464,11.1141136 C0.457344,13.6199903 0.612224,16.1461266 0.682624,18.6621331 C0.798464,22.8628636 -0.130176,26.9958506 0.015744,31.206711" id="Fill-14"></path>
                </g>
                <path d="M7.423744,24.1765179 C7.437184,23.8491964 7.305984,23.5801218 7.039104,23.570625 C6.272384,23.5453003 6.106624,24.2474269 5.786624,24.7260633 C5.615104,24.9831088 5.824384,25.2901705 6.093184,25.2559821 C6.748544,25.1711445 7.106304,24.6614854 7.423744,24.1765179" id="Fill-17"></path>
                <path d="M9.633152,24.7614545 C10.169472,24.6696526 10.616192,24.3543604 10.592512,23.7820227 C10.574592,23.3426396 10.113792,23.3736623 9.816192,23.3622662 C9.255552,23.4433052 8.675072,23.5078831 8.730112,24.1834188 C8.766592,24.6348312 9.190272,24.8374286 9.633152,24.7614545" id="Fill-19"></path>
                <path d="M12.353728,24.7558831 C12.810688,24.6203961 13.388608,24.5754448 13.481408,23.9454935 C13.530688,23.6105747 13.347648,23.3832857 13.002688,23.2674253 C12.516928,23.5105422 12.012608,23.7846818 11.861568,24.3506883 C11.797568,24.592539 12.086208,24.8350227 12.353728,24.7558831" id="Fill-21"></path>
            </g>
        </g>
    </g>
</svg>